Coordinates
version=1
nRows=16
nColumns=40
inDegrees=yes

Units are S.I. units (second, meters, Newtons, ...)
Angles are in degrees.

endheader
time	pelvis_tilt	pelvis_list	pelvis_rotation	pelvis_tx	pelvis_ty	pelvis_tz	hip_flexion_r	hip_adduction_r	hip_rotation_r	knee_angle_r	knee_angle_r_beta	ankle_angle_r	subtalar_angle_r	mtp_angle_r	hip_flexion_l	hip_adduction_l	hip_rotation_l	knee_angle_l	knee_angle_l_beta	ankle_angle_l	subtalar_angle_l	mtp_angle_l	lumbar_extension	lumbar_bending	lumbar_rotation	arm_flex_r	arm_add_r	arm_rot_r	elbow_flex_r	pro_sup_r	wrist_flex_r	wrist_dev_r	arm_flex_l	arm_add_l	arm_rot_l	elbow_flex_l	pro_sup_l	wrist_flex_l	wrist_dev_l
     58.38500000	     -7.35407739	     -4.22752891	      4.24917741	      1.10191385	      0.91077164	      0.45948348	     -0.38047517	     -2.48812450	    -14.22448269	     28.31987147	     28.31987147	     14.27063259	     -2.29020200	    -11.06109202	     32.78307985	     -4.11273094	     -1.80565645	     27.92009911	     27.92009911	      5.78969304	    -16.22923212	      6.12506223	     -8.16839657	      4.22269065	      2.68078957	     45.05778198	    -14.34016004	     -8.09892545	    110.28808843	     44.02570807	      0.00000000	      0.00000000	    -12.08476943	     -5.57084445	      8.99251341	     20.86064607	     43.88637016	      0.00000000	      0.00000000
     58.39657143	     -7.40277158	     -4.26346298	      4.14655355	      1.10217906	      0.91271140	      0.45676902	      1.03440351	     -2.83828176	    -13.13770926	     31.33059924	     31.33059924	     10.08054191	     -6.53369206	    -17.23837630	     32.01642852	     -4.03303550	     -1.81837090	     27.77457062	     27.77457062	      6.84808014	    -16.07044674	      7.09696654	     -8.06203746	      4.37226153	      3.42703300	     42.13829067	    -15.08935353	     -9.10434154	    111.60931316	     44.08455110	      0.00000000	      0.00000000	    -10.81056269	     -5.78766052	      8.85529760	     21.65668050	     44.07307965	      0.00000000	      0.00000000
     58.40814286	     -7.30920899	     -4.10308881	      4.00743303	      1.10238379	      0.91470096	      0.45395251	      2.67260024	     -3.71175735	    -12.74742218	     35.30205348	     35.30205348	      8.09252472	     -8.01055979	    -17.35288709	     30.98539785	     -3.80997014	     -2.08821806	     27.46598548	     27.46598548	      7.43262431	    -15.93300044	      6.89864916	     -8.06826708	      4.36112207	      3.15524648	     39.82633872	    -14.74535506	     -8.78083497	    110.79496462	     44.09731379	      0.00000000	      0.00000000	     -9.80265768	     -5.92178133	      8.80139561	     22.14352341	     44.11438568	      0.00000000	      0.00000000
     58.41971429	     -7.29556882	     -4.01698275	      3.84416500	      1.10220846	      0.91644602	      0.45140841	      4.61834581	     -4.39393722	    -12.06581762	     39.39655955	     39.39655955	      5.87892977	     -9.97924523	    -17.07367312	     30.03611469	     -3.66740004	     -2.32850313	     27.07559977	     27.07559977	      7.93581305	    -15.79392379	      6.72684670	     -8.03381226	      4.40332994	      3.03960969	     37.44225177	    -14.58465292	     -8.58951500	    109.80245025	     44.11942926	      0.00000000	      0.00000000	     -8.70005331	     -6.11421580	      8.66576237	     22.87994128	     44.16912013	      0.00000000	      0.00000000
     58.43128571	     -7.39687261	     -4.11105015	      3.63123710	      1.10163851	      0.91789053	      0.44929743	      6.87251091	     -4.64251916	    -11.02141066	     43.46992576	     43.46992576	      3.58012902	    -12.67740281	    -15.86248514	     29.25911995	     -3.73872716	     -2.55944984	     26.66799527	     26.66799527	      8.31919276	    -15.65789169	      6.50679408	     -7.87379977	      4.61966219	      3.19556931	     35.00135840	    -14.81223789	     -8.81841353	    108.32215673	     44.17881212	      0.00000000	      0.00000000	     -7.67786124	     -6.39769717	      8.28265413	     24.22155527	     44.27431542	      0.00000000	      0.00000000
     58.44285714	     -7.32565856	     -4.10128716	      3.41517995	      1.10099988	      0.91931028	      0.44727490	      9.10004228	     -5.06238847	    -10.21404263	     47.75041046	     47.75041046	      2.70917399	    -13.59982510	    -11.35945536	     28.30684268	     -3.75278664	     -2.91096302	     26.29914779	     26.29914779	      8.61106863	    -15.40740865	      5.76630976	     -7.98625858	      4.71498214	      2.99215991	     32.74113810	    -14.36755281	     -9.01546788	    106.46733818	     44.30863488	      0.00000000	      0.00000000	     -7.13049667	     -6.75044863	      6.76332589	     26.93951360	     44.64729343	      0.00000000	      0.00000000
     58.45442857	     -7.23738244	     -3.97347502	      3.19015955	      1.10010748	      0.92060368	      0.44529432	     11.21838786	     -5.63351868	     -9.59315317	     51.50873094	     51.50873094	      0.79230515	    -14.96527401	    -10.55599170	     27.33998017	     -3.63477111	     -3.30002478	     25.93275840	     25.93275840	      9.04513845	    -15.17467245	      5.57291732	     -8.15405952	      4.71768465	      2.91786550	     30.32225113	    -14.13975185	     -8.77212501	    104.87950615	     44.34643002	      0.00000000	      0.00000000	     -5.65968063	     -7.08710088	      6.54861816	     27.73050821	     44.71324422	      0.00000000	      0.00000000
     58.46600000	     -7.15267706	     -3.92015773	      2.98919160	      1.09894632	      0.92175134	      0.44345363	     13.39346661	     -6.02486880	     -8.94755508	     55.03852085	     55.03852085	     -0.76521691	    -16.19523762	     -9.42250878	     26.43307724	     -3.59164582	     -3.65313230	     25.60156787	     25.60156787	      9.45987027	    -14.89721860	      5.32858427	     -8.33680641	      4.82225104	      2.96532737	     27.95561654	    -14.05343194	     -8.72324095	    102.80218714	     44.40559950	      0.00000000	      0.00000000	     -4.12165354	     -7.42854584	      6.28163061	     28.76174601	     44.78500486	      0.00000000	      0.00000000
     58.47757143	     -7.09833434	     -4.01080852	      2.70716615	      1.09758646	      0.92271068	      0.44198721	     15.93375902	     -6.11211222	     -8.15301279	     58.90471647	     58.90471647	      0.77388504	    -15.71638372	     -0.34288224	     25.56671058	     -3.77086173	     -4.13545094	     25.23330965	     25.23330965	      9.57580348	    -14.56936185	      4.15049767	     -8.40209920	      4.98063282	      2.41196902	     26.70033026	    -13.54901466	     -8.66743983	     97.84360604	     44.62150490	      0.00000000	      0.00000000	     -3.74402923	     -7.83839075	      4.12260117	     32.08906834	     45.19596422	      0.00000000	      0.00000000
     58.48914286	     -6.93227430	     -3.93813997	      2.49074519	      1.09611780	      0.92376952	      0.44040911	     17.98881787	     -6.46542944	     -7.68246945	     61.71203141	     61.71203141	     -0.26601654	    -16.48739051	     -0.11424588	     24.61634977	     -3.72000377	     -4.48339601	     24.94716550	     24.94716550	     10.00480759	    -14.29413038	      3.96222711	     -8.75927581	      5.07172236	      2.37395774	     24.40754863	    -13.32227659	     -8.53534401	     95.83493354	     44.67506062	      0.00000000	      0.00000000	     -1.97629627	     -8.21380922	      3.91577259	     32.97483491	     45.25513438	      0.00000000	      0.00000000
     58.50071429	     -6.90874333	     -3.86884826	      2.14135223	      1.09461214	      0.92458047	      0.43901275	     20.24129793	     -6.72832521	     -7.10723309	     64.22279041	     64.22279041	     -0.81304404	    -17.10581118	      0.47693116	     23.73766978	     -3.72809997	     -5.07878094	     24.53641235	     24.53641235	     10.48150815	    -13.84478527	      3.65117747	     -8.79884416	      5.05113861	      2.88493772	     22.25589814	    -13.72289955	     -8.97132301	     91.97066928	     44.80914335	      0.00000000	      0.00000000	     -0.20748127	     -8.51977926	      3.61962680	     34.31347573	     45.32757762	      0.00000000	      0.00000000
     58.51228571	     -6.69809842	     -3.94482897	      1.91179840	      1.09291257	      0.92565224	      0.43767409	     22.28446244	     -6.82117305	     -6.74697029	     66.40430431	     66.40430431	     -0.17884800	    -17.02848169	      3.63675295	     22.76071208	     -3.86147039	     -5.48981452	     24.21975330	     24.21975330	     10.67768523	    -13.46495670	      2.76247680	     -9.12359034	      5.27842330	      1.75613366	     22.13452665	    -12.53566236	     -8.68391263	     84.97986095	     45.05263590	      0.00000000	      0.00000000	      0.42628283	     -9.17613145	      2.47469730	     37.11909903	     45.54710584	      0.00000000	      0.00000000
     58.52385714	     -6.51554662	     -3.99077505	      1.59512559	      1.09123701	      0.92673887	      0.43649420	     24.20869274	     -6.94476689	     -6.46303293	     67.92828575	     67.92828575	     -0.39158412	    -17.29272195	      3.69226029	     21.78946644	     -3.97853674	     -5.99690110	     23.89833819	     23.89833819	     11.05451150	    -13.11337837	      2.52645794	     -9.50107330	      5.41668962	      2.19559100	     20.28827633	    -12.77780887	     -9.03932038	     80.77385120	     45.19779793	      0.00000000	      0.00000000	      2.46412740	     -9.47750360	      2.25880797	     38.36308996	     45.61448879	      0.00000000	      0.00000000
     58.53542857	     -6.38388654	     -4.03355081	      1.30094446	      1.08954111	      0.92761991	      0.43543759	     26.13591765	     -7.00634978	     -6.20724931	     69.04787965	     69.04787965	     -0.29032155	    -17.49456079	      3.85174104	     20.84054967	     -4.06371973	     -6.39382510	     23.51154172	     23.51154172	     11.46730071	    -12.71795731	      2.12724245	     -9.66511740	      5.62693223	      1.72470678	     19.69197436	    -12.01184571	     -9.34140800	     74.82219042	     45.40107682	      0.00000000	      0.00000000	      3.95493308	    -10.16907827	      2.19742811	     39.69164427	     45.66658900	      0.00000000	      0.00000000
     58.54700000	     -6.26163751	     -4.05052041	      0.94848726	      1.08785661	      0.92848878	      0.43449045	     27.99256380	     -7.08240615	     -5.99606487	     69.66830027	     69.66830027	     -0.22122829	    -17.58462456	      3.74912015	     19.86679018	     -4.10334065	     -6.76690472	     23.07280773	     23.07280773	     11.86956597	    -12.49147692	      1.98766486	     -9.95372441	      5.78653380	      2.28933340	     17.64188328	    -12.50680567	     -9.24861443	     71.44420937	     45.50085199	      0.00000000	      0.00000000	      5.98469475	    -10.45225041	      1.98704860	     41.08916967	     45.72739508	      0.00000000	      0.00000000
     58.55857143	     -6.10494275	     -4.22297905	      0.62882954	      1.08614148	      0.92943244	      0.43377643	     29.64524639	     -6.96330925	     -5.97632597	     69.70935215	     69.70935215	     -0.10810865	    -17.60375191	      3.72724690	     18.91515483	     -4.34084762	     -7.18418041	     22.71216182	     22.71216182	     12.19585438	    -12.14336120	      1.55853349	    -10.15554075	      6.08211241	      1.55029655	     18.04589543	    -11.64515131	     -9.42050043	     63.40763823	     45.76551366	      0.00000000	      0.00000000	      7.25388921	    -11.35956085	      2.11243410	     42.74803203	     45.76346117	      0.00000000	      0.00000000
